{"title":"Gadiel Ft. Yandel - Sexo Y Pasión (h264/mp4)","uid":7712242,"size":48903380,"categoryP":"video","categoryS":"music_videos","magnet":"?xt=urn:btih:e9555c1f3b697dae1212d7c575d1e68ef3e925eb&amp;dn=Gadiel+Ft.+Yandel+-+Sexo+Y+Pasi%26oacute%3Bn+%28h264%2Fmp4%29&amp;tr=udp%3A%2F%2Ftracker.openbittorrent.com%3A80&amp;tr=udp%3A%2F%2Fopen.demonii.com%3A1337&amp;tr=udp%3A%2F%2Ftracker.coppersurfer.tk%3A6969&amp;tr=udp%3A%2F%2Fexodus.desync.com%3A6969","seeders":1,"leechers":0,"uploader":"MusicVideos-HQ","files":1,"time":1349838944,"description":"General\n\nFormat                         : MPEG-4\nFormat profile                 : Base Media\nCodec ID                       : isom\nFile size                      : 46.6 MiB\nDuration                       : 3mn 45s\nOverall bit rate mode          : Variable\nOverall bit rate               : 1 733 Kbps\nEncoded date                   : UTC 2012-10-09 04:29:02\nTagged date                    : UTC 2012-10-09 04:29:02\n\nVideo\nID                             : 1\nFormat                         : AVC\nFormat/Info                    : Advanced Video Codec\nFormat profile                 : &lt;a class=&quot;__cf_email__&quot; href=&quot;/cdn-cgi/l/email-protection&quot; data-cfemail=&quot;0b43626c634b4738253b&quot;&gt;[email&amp;#160;protected]&lt;/a&gt;&lt;script cf-hash='f9e31' type=&quot;text/javascript&quot;&gt;\n/* &lt;![CDATA[ */!function(){try{var t=&quot;currentScript&quot;in document?document.currentScript:function(){for(var t=document.getElementsByTagName(&quot;script&quot;),e=t.length;e--;)if(t[e].getAttribute(&quot;cf-hash&quot;))return t[e]}();if(t&amp;&amp;t.previousSibling){var e,r,n,i,c=t.previousSibling,a=c.getAttribute(&quot;data-cfemail&quot;);if(a){for(e=&quot;&quot;,r=parseInt(a.substr(0,2),16),n=2;a.length-n;n+=2)i=parseInt(a.substr(n,2),16)^r,e+=String.fromCharCode(i);e=document.createTextNode(e),c.parentNode.replaceChild(e,c)}}}catch(u){}}();/* ]]&gt; */&lt;/script&gt;\nFormat settings, CABAC         : Yes\nFormat settings, ReFrames      : 2 frames\nCodec ID                       : avc1\nCodec ID/Info                  : Advanced Video Coding\nDuration                       : 3mn 45s\nBit rate                       : 1 540 Kbps\nMaximum bit rate               : 3 786 Kbps\nWidth                          : 720 pixels\nHeight                         : 480 pixels\nDisplay aspect ratio           : 16:9\nOriginal display aspect ratio  : 16:9\nFrame rate mode                : Constant\nFrame rate                     : 29.970 fps\nStandard                       : NTSC\nColor space                    : YUV\nChroma subsampling             : 4:2:0\nBit depth                      : 8 bits\nScan type                      : Progressive\nBits/(Pixel*Frame)             : 0.149\nStream size                    : 41.4 MiB (89%)\n\n\nAudio\nID                             : 2\nFormat                         : AAC\nFormat/Info                    : Advanced Audio Codec\nFormat profile                 : LC\nCodec ID                       : 40\nDuration                       : 3mn 45s\nBit rate mode                  : Variable\nBit rate                       : 192 Kbps\nMaximum bit rate               : 231 Kbps\nChannel(s)                     : 2 channels\nChannel positions              : Front: L R\nSampling rate                  : 44.1 KHz\nCompression mode               : Lossy\nStream size                    : 5.08 MiB (11%)","torrent":{"xt":"urn:btih:e9555c1f3b697dae1212d7c575d1e68ef3e925eb","amp;dn":"Gadiel+Ft.+Yandel+-+Sexo+Y+Pasi%26oacute%3Bn+%28h264%2Fmp4%29","amp;tr":["udp%3A%2F%2Ftracker.openbittorrent.com%3A80","udp%3A%2F%2Fopen.demonii.com%3A1337","udp%3A%2F%2Ftracker.coppersurfer.tk%3A6969","udp%3A%2F%2Fexodus.desync.com%3A6969"],"infoHash":"e9555c1f3b697dae1212d7c575d1e68ef3e925eb","infoHashBuffer":{"type":"Buffer","data":[233,85,92,31,59,105,125,174,18,18,215,197,117,209,230,142,243,233,37,235]},"announce":[],"urlList":[]}}